<mxfile host="Electron" modified="2025-04-23T02:11:17.058Z" agent="Mozilla/5.0 (Windows NT 10.0; Win64; x64) AppleWebKit/537.36 (KHTML, like Gecko) draw.io/24.2.5 Chrome/120.0.6099.109 Electron/28.1.0 Safari/537.36" etag="NBoY2-V6VD5yAclDgfBG" version="24.2.5" type="device">
  <diagram id="C5RBs43oDa-KdzZeNtuy" name="Page-1">
    <mxGraphModel dx="2074" dy="1244" grid="0" gridSize="10" guides="1" tooltips="1" connect="1" arrows="1" fold="1" page="0" pageScale="1" pageWidth="827" pageHeight="1169" math="0" shadow="0">
      <root>
        <mxCell id="WIyWlLk6GJQsqaUBKTNV-0" />
        <mxCell id="WIyWlLk6GJQsqaUBKTNV-1" parent="WIyWlLk6GJQsqaUBKTNV-0" />
        <mxCell id="w-WPIUZYo52V58Tek4Fx-0" value="Empresa" style="swimlane;fontStyle=2;align=center;verticalAlign=top;childLayout=stackLayout;horizontal=1;startSize=30;horizontalStack=0;resizeParent=1;resizeLast=0;collapsible=1;marginBottom=0;rounded=0;shadow=0;strokeWidth=1;" parent="WIyWlLk6GJQsqaUBKTNV-1" vertex="1">
          <mxGeometry x="-130" y="-220" width="223" height="380" as="geometry">
            <mxRectangle x="230" y="140" width="160" height="26" as="alternateBounds" />
          </mxGeometry>
        </mxCell>
        <mxCell id="w-WPIUZYo52V58Tek4Fx-1" value="- nombre: String" style="text;align=left;verticalAlign=top;spacingLeft=4;spacingRight=4;overflow=hidden;rotatable=0;points=[[0,0.5],[1,0.5]];portConstraint=eastwest;" parent="w-WPIUZYo52V58Tek4Fx-0" vertex="1">
          <mxGeometry y="30" width="223" height="26" as="geometry" />
        </mxCell>
        <mxCell id="w-WPIUZYo52V58Tek4Fx-2" value="- cuit: String" style="text;align=left;verticalAlign=top;spacingLeft=4;spacingRight=4;overflow=hidden;rotatable=0;points=[[0,0.5],[1,0.5]];portConstraint=eastwest;rounded=0;shadow=0;html=0;" parent="w-WPIUZYo52V58Tek4Fx-0" vertex="1">
          <mxGeometry y="56" width="223" height="26" as="geometry" />
        </mxCell>
        <mxCell id="w-WPIUZYo52V58Tek4Fx-3" value="" style="line;html=1;strokeWidth=1;align=left;verticalAlign=middle;spacingTop=-1;spacingLeft=3;spacingRight=3;rotatable=0;labelPosition=right;points=[];portConstraint=eastwest;" parent="w-WPIUZYo52V58Tek4Fx-0" vertex="1">
          <mxGeometry y="82" width="223" height="8" as="geometry" />
        </mxCell>
        <mxCell id="w-WPIUZYo52V58Tek4Fx-4" value="+ new(String, String) " style="text;whiteSpace=wrap;fontStyle=4" parent="w-WPIUZYo52V58Tek4Fx-0" vertex="1">
          <mxGeometry y="90" width="223" height="30" as="geometry" />
        </mxCell>
        <mxCell id="w-WPIUZYo52V58Tek4Fx-5" value="+ getNombre(): String" style="text;align=left;verticalAlign=top;spacingLeft=4;spacingRight=4;overflow=hidden;rotatable=0;points=[[0,0.5],[1,0.5]];portConstraint=eastwest;" parent="w-WPIUZYo52V58Tek4Fx-0" vertex="1">
          <mxGeometry y="120" width="223" height="28" as="geometry" />
        </mxCell>
        <mxCell id="w-WPIUZYo52V58Tek4Fx-6" value="+ getCuit(): String" style="text;align=left;verticalAlign=top;spacingLeft=4;spacingRight=4;overflow=hidden;rotatable=0;points=[[0,0.5],[1,0.5]];portConstraint=eastwest;" parent="w-WPIUZYo52V58Tek4Fx-0" vertex="1">
          <mxGeometry y="148" width="223" height="28" as="geometry" />
        </mxCell>
        <mxCell id="w-WPIUZYo52V58Tek4Fx-7" value="+ getEmpleados(): List&lt;Empleado&gt; " style="text;align=left;verticalAlign=top;spacingLeft=4;spacingRight=4;overflow=hidden;rotatable=0;points=[[0,0.5],[1,0.5]];portConstraint=eastwest;" parent="w-WPIUZYo52V58Tek4Fx-0" vertex="1">
          <mxGeometry y="176" width="223" height="28" as="geometry" />
        </mxCell>
        <mxCell id="w-WPIUZYo52V58Tek4Fx-8" value="+ agregarEmpleado(Empleado): Void" style="text;align=left;verticalAlign=top;spacingLeft=4;spacingRight=4;overflow=hidden;rotatable=0;points=[[0,0.5],[1,0.5]];portConstraint=eastwest;" parent="w-WPIUZYo52V58Tek4Fx-0" vertex="1">
          <mxGeometry y="204" width="223" height="28" as="geometry" />
        </mxCell>
        <mxCell id="w-WPIUZYo52V58Tek4Fx-118" value="+ generarRecibosParaTodos(): void" style="text;align=left;verticalAlign=top;spacingLeft=4;spacingRight=4;overflow=hidden;rotatable=0;points=[[0,0.5],[1,0.5]];portConstraint=eastwest;" parent="w-WPIUZYo52V58Tek4Fx-0" vertex="1">
          <mxGeometry y="232" width="223" height="30" as="geometry" />
        </mxCell>
        <mxCell id="w-WPIUZYo52V58Tek4Fx-117" value="+ mostrarRecibos(): void " style="text;align=left;verticalAlign=top;spacingLeft=4;spacingRight=4;overflow=hidden;rotatable=0;points=[[0,0.5],[1,0.5]];portConstraint=eastwest;" parent="w-WPIUZYo52V58Tek4Fx-0" vertex="1">
          <mxGeometry y="262" width="223" height="30" as="geometry" />
        </mxCell>
        <mxCell id="w-WPIUZYo52V58Tek4Fx-11" value="+ totalRetenciones(): double" style="text;align=left;verticalAlign=top;spacingLeft=4;spacingRight=4;overflow=hidden;rotatable=0;points=[[0,0.5],[1,0.5]];portConstraint=eastwest;" parent="w-WPIUZYo52V58Tek4Fx-0" vertex="1">
          <mxGeometry y="292" width="223" height="32" as="geometry" />
        </mxCell>
        <mxCell id="w-WPIUZYo52V58Tek4Fx-9" value="+ totalSueldosNetos(): double" style="text;align=left;verticalAlign=top;spacingLeft=4;spacingRight=4;overflow=hidden;rotatable=0;points=[[0,0.5],[1,0.5]];portConstraint=eastwest;" parent="w-WPIUZYo52V58Tek4Fx-0" vertex="1">
          <mxGeometry y="324" width="223" height="28" as="geometry" />
        </mxCell>
        <mxCell id="w-WPIUZYo52V58Tek4Fx-10" value="+ totalSueldosBrutos(): double" style="text;align=left;verticalAlign=top;spacingLeft=4;spacingRight=4;overflow=hidden;rotatable=0;points=[[0,0.5],[1,0.5]];portConstraint=eastwest;" parent="w-WPIUZYo52V58Tek4Fx-0" vertex="1">
          <mxGeometry y="352" width="223" height="28" as="geometry" />
        </mxCell>
        <mxCell id="w-WPIUZYo52V58Tek4Fx-14" value="EmpleadoPlantaTemporaria" style="swimlane;fontStyle=0;align=center;verticalAlign=top;childLayout=stackLayout;horizontal=1;startSize=26;horizontalStack=0;resizeParent=1;resizeLast=0;collapsible=1;marginBottom=0;rounded=0;shadow=0;strokeWidth=1;" parent="WIyWlLk6GJQsqaUBKTNV-1" vertex="1">
          <mxGeometry x="371" y="621" width="364" height="386" as="geometry">
            <mxRectangle x="130" y="380" width="160" height="26" as="alternateBounds" />
          </mxGeometry>
        </mxCell>
        <mxCell id="w-WPIUZYo52V58Tek4Fx-135" value="- fechaFinDesignacion: LocalDate" style="text;align=left;verticalAlign=top;spacingLeft=4;spacingRight=4;overflow=hidden;rotatable=0;points=[[0,0.5],[1,0.5]];portConstraint=eastwest;rounded=0;shadow=0;html=0;" parent="w-WPIUZYo52V58Tek4Fx-14" vertex="1">
          <mxGeometry y="26" width="364" height="26" as="geometry" />
        </mxCell>
        <mxCell id="w-WPIUZYo52V58Tek4Fx-15" value="- cantHorasExtras: int" style="text;align=left;verticalAlign=top;spacingLeft=4;spacingRight=4;overflow=hidden;rotatable=0;points=[[0,0.5],[1,0.5]];portConstraint=eastwest;" parent="w-WPIUZYo52V58Tek4Fx-14" vertex="1">
          <mxGeometry y="52" width="364" height="26" as="geometry" />
        </mxCell>
        <mxCell id="w-WPIUZYo52V58Tek4Fx-17" value="" style="line;html=1;strokeWidth=1;align=left;verticalAlign=middle;spacingTop=-1;spacingLeft=3;spacingRight=3;rotatable=0;labelPosition=right;points=[];portConstraint=eastwest;" parent="w-WPIUZYo52V58Tek4Fx-14" vertex="1">
          <mxGeometry y="78" width="364" height="8" as="geometry" />
        </mxCell>
        <mxCell id="w-WPIUZYo52V58Tek4Fx-18" value="+ new(LocalDate, int)" style="text;align=left;verticalAlign=top;spacingLeft=4;spacingRight=4;overflow=hidden;rotatable=0;points=[[0,0.5],[1,0.5]];portConstraint=eastwest;fontStyle=4" parent="w-WPIUZYo52V58Tek4Fx-14" vertex="1">
          <mxGeometry y="86" width="364" height="26" as="geometry" />
        </mxCell>
        <mxCell id="w-WPIUZYo52V58Tek4Fx-21" value="+ getFechaFinDesignacion(): LocalDate" style="text;align=left;verticalAlign=top;spacingLeft=4;spacingRight=4;overflow=hidden;rotatable=0;points=[[0,0.5],[1,0.5]];portConstraint=eastwest;fontStyle=0" parent="w-WPIUZYo52V58Tek4Fx-14" vertex="1">
          <mxGeometry y="112" width="364" height="26" as="geometry" />
        </mxCell>
        <mxCell id="w-WPIUZYo52V58Tek4Fx-20" value="+ getCantHorasExtras(): int" style="text;align=left;verticalAlign=top;spacingLeft=4;spacingRight=4;overflow=hidden;rotatable=0;points=[[0,0.5],[1,0.5]];portConstraint=eastwest;fontStyle=0" parent="w-WPIUZYo52V58Tek4Fx-14" vertex="1">
          <mxGeometry y="138" width="364" height="26" as="geometry" />
        </mxCell>
        <mxCell id="w-WPIUZYo52V58Tek4Fx-24" value="+ setFechaFinDesignacion(LocalDate): void" style="text;align=left;verticalAlign=top;spacingLeft=4;spacingRight=4;overflow=hidden;rotatable=0;points=[[0,0.5],[1,0.5]];portConstraint=eastwest;" parent="w-WPIUZYo52V58Tek4Fx-14" vertex="1">
          <mxGeometry y="164" width="364" height="26" as="geometry" />
        </mxCell>
        <mxCell id="w-WPIUZYo52V58Tek4Fx-25" value="+ setCantHorasExtras(int): void" style="text;align=left;verticalAlign=top;spacingLeft=4;spacingRight=4;overflow=hidden;rotatable=0;points=[[0,0.5],[1,0.5]];portConstraint=eastwest;" parent="w-WPIUZYo52V58Tek4Fx-14" vertex="1">
          <mxGeometry y="190" width="364" height="26" as="geometry" />
        </mxCell>
        <mxCell id="w-WPIUZYo52V58Tek4Fx-26" value="+ extraPorEdadMayorACincuenta(): double" style="text;align=left;verticalAlign=top;spacingLeft=4;spacingRight=4;overflow=hidden;rotatable=0;points=[[0,0.5],[1,0.5]];portConstraint=eastwest;" parent="w-WPIUZYo52V58Tek4Fx-14" vertex="1">
          <mxGeometry y="216" width="364" height="26" as="geometry" />
        </mxCell>
        <mxCell id="w-WPIUZYo52V58Tek4Fx-137" value="+ sueldoBruto(): double" style="text;align=left;verticalAlign=top;spacingLeft=4;spacingRight=4;overflow=hidden;rotatable=0;points=[[0,0.5],[1,0.5]];portConstraint=eastwest;" parent="w-WPIUZYo52V58Tek4Fx-14" vertex="1">
          <mxGeometry y="242" width="364" height="28" as="geometry" />
        </mxCell>
        <mxCell id="w-WPIUZYo52V58Tek4Fx-139" value="+ retencionPorObraSocial(): double" style="text;align=left;verticalAlign=top;spacingLeft=4;spacingRight=4;overflow=hidden;rotatable=0;points=[[0,0.5],[1,0.5]];portConstraint=eastwest;fontStyle=0" parent="w-WPIUZYo52V58Tek4Fx-14" vertex="1">
          <mxGeometry y="270" width="364" height="26" as="geometry" />
        </mxCell>
        <mxCell id="w-WPIUZYo52V58Tek4Fx-140" value="+ retencionPorAportesJubilatorios(): double&#xa;" style="text;align=left;verticalAlign=top;spacingLeft=4;spacingRight=4;overflow=hidden;rotatable=0;points=[[0,0.5],[1,0.5]];portConstraint=eastwest;fontStyle=0" parent="w-WPIUZYo52V58Tek4Fx-14" vertex="1">
          <mxGeometry y="296" width="364" height="26" as="geometry" />
        </mxCell>
        <mxCell id="w-WPIUZYo52V58Tek4Fx-136" value="+ retenciones(): double" style="text;align=left;verticalAlign=top;spacingLeft=4;spacingRight=4;overflow=hidden;rotatable=0;points=[[0,0.5],[1,0.5]];portConstraint=eastwest;fontStyle=0" parent="w-WPIUZYo52V58Tek4Fx-14" vertex="1">
          <mxGeometry y="322" width="364" height="26" as="geometry" />
        </mxCell>
        <mxCell id="w-WPIUZYo52V58Tek4Fx-19" value="+ desgloseDeConceptos() : List&lt;String&gt;" style="text;align=left;verticalAlign=top;spacingLeft=4;spacingRight=4;overflow=hidden;rotatable=0;points=[[0,0.5],[1,0.5]];portConstraint=eastwest;" parent="w-WPIUZYo52V58Tek4Fx-14" vertex="1">
          <mxGeometry y="348" width="364" height="28" as="geometry" />
        </mxCell>
        <mxCell id="w-WPIUZYo52V58Tek4Fx-31" value="EmpleadoPlantaPermanente" style="swimlane;fontStyle=0;align=center;verticalAlign=top;childLayout=stackLayout;horizontal=1;startSize=26;horizontalStack=0;resizeParent=1;resizeLast=0;collapsible=1;marginBottom=0;rounded=0;shadow=0;strokeWidth=1;" parent="WIyWlLk6GJQsqaUBKTNV-1" vertex="1">
          <mxGeometry x="771" y="638" width="310" height="455" as="geometry">
            <mxRectangle x="360" y="440" width="170" height="26" as="alternateBounds" />
          </mxGeometry>
        </mxCell>
        <mxCell id="w-WPIUZYo52V58Tek4Fx-32" value="- cantidadHijos: int" style="text;align=left;verticalAlign=top;spacingLeft=4;spacingRight=4;overflow=hidden;rotatable=0;points=[[0,0.5],[1,0.5]];portConstraint=eastwest;" parent="w-WPIUZYo52V58Tek4Fx-31" vertex="1">
          <mxGeometry y="26" width="310" height="26" as="geometry" />
        </mxCell>
        <mxCell id="w-WPIUZYo52V58Tek4Fx-33" value="- antiguedad: int" style="text;align=left;verticalAlign=top;spacingLeft=4;spacingRight=4;overflow=hidden;rotatable=0;points=[[0,0.5],[1,0.5]];portConstraint=eastwest;" parent="w-WPIUZYo52V58Tek4Fx-31" vertex="1">
          <mxGeometry y="52" width="310" height="26" as="geometry" />
        </mxCell>
        <mxCell id="w-WPIUZYo52V58Tek4Fx-34" value="" style="line;html=1;strokeWidth=1;align=left;verticalAlign=middle;spacingTop=-1;spacingLeft=3;spacingRight=3;rotatable=0;labelPosition=right;points=[];portConstraint=eastwest;" parent="w-WPIUZYo52V58Tek4Fx-31" vertex="1">
          <mxGeometry y="78" width="310" height="8" as="geometry" />
        </mxCell>
        <mxCell id="w-WPIUZYo52V58Tek4Fx-35" value="+ new(int, int)" style="text;align=left;verticalAlign=top;spacingLeft=4;spacingRight=4;overflow=hidden;rotatable=0;points=[[0,0.5],[1,0.5]];portConstraint=eastwest;fontStyle=4" parent="w-WPIUZYo52V58Tek4Fx-31" vertex="1">
          <mxGeometry y="86" width="310" height="26" as="geometry" />
        </mxCell>
        <mxCell id="w-WPIUZYo52V58Tek4Fx-37" value="+ getCantidadDeHijos(): int" style="text;align=left;verticalAlign=top;spacingLeft=4;spacingRight=4;overflow=hidden;rotatable=0;points=[[0,0.5],[1,0.5]];portConstraint=eastwest;fontStyle=0" parent="w-WPIUZYo52V58Tek4Fx-31" vertex="1">
          <mxGeometry y="112" width="310" height="26" as="geometry" />
        </mxCell>
        <mxCell id="w-WPIUZYo52V58Tek4Fx-38" value="+ getAntiguedad(): int" style="text;align=left;verticalAlign=top;spacingLeft=4;spacingRight=4;overflow=hidden;rotatable=0;points=[[0,0.5],[1,0.5]];portConstraint=eastwest;fontStyle=0" parent="w-WPIUZYo52V58Tek4Fx-31" vertex="1">
          <mxGeometry y="138" width="310" height="26" as="geometry" />
        </mxCell>
        <mxCell id="w-WPIUZYo52V58Tek4Fx-142" value="+ setAntiguedad(int): void" style="text;align=left;verticalAlign=top;spacingLeft=4;spacingRight=4;overflow=hidden;rotatable=0;points=[[0,0.5],[1,0.5]];portConstraint=eastwest;fontStyle=0" parent="w-WPIUZYo52V58Tek4Fx-31" vertex="1">
          <mxGeometry y="164" width="310" height="26" as="geometry" />
        </mxCell>
        <mxCell id="w-WPIUZYo52V58Tek4Fx-141" value="+ setCantidadHijos(int): void" style="text;align=left;verticalAlign=top;spacingLeft=4;spacingRight=4;overflow=hidden;rotatable=0;points=[[0,0.5],[1,0.5]];portConstraint=eastwest;fontStyle=0" parent="w-WPIUZYo52V58Tek4Fx-31" vertex="1">
          <mxGeometry y="190" width="310" height="26" as="geometry" />
        </mxCell>
        <mxCell id="w-WPIUZYo52V58Tek4Fx-143" value="+ salarioFamiliar(): double" style="text;align=left;verticalAlign=top;spacingLeft=4;spacingRight=4;overflow=hidden;rotatable=0;points=[[0,0.5],[1,0.5]];portConstraint=eastwest;fontStyle=0" parent="w-WPIUZYo52V58Tek4Fx-31" vertex="1">
          <mxGeometry y="216" width="310" height="26" as="geometry" />
        </mxCell>
        <mxCell id="w-WPIUZYo52V58Tek4Fx-44" value="+ sueldoAsignacionPorAntiguedad(): double" style="text;align=left;verticalAlign=top;spacingLeft=4;spacingRight=4;overflow=hidden;rotatable=0;points=[[0,0.5],[1,0.5]];portConstraint=eastwest;" parent="w-WPIUZYo52V58Tek4Fx-31" vertex="1">
          <mxGeometry y="242" width="310" height="26" as="geometry" />
        </mxCell>
        <mxCell id="w-WPIUZYo52V58Tek4Fx-45" value="+ sueldoAsignacionPorConyuge(): double" style="text;align=left;verticalAlign=top;spacingLeft=4;spacingRight=4;overflow=hidden;rotatable=0;points=[[0,0.5],[1,0.5]];portConstraint=eastwest;" parent="w-WPIUZYo52V58Tek4Fx-31" vertex="1">
          <mxGeometry y="268" width="310" height="26" as="geometry" />
        </mxCell>
        <mxCell id="w-WPIUZYo52V58Tek4Fx-46" value="+ sueldoAsignacionPorHijo(): double" style="text;align=left;verticalAlign=top;spacingLeft=4;spacingRight=4;overflow=hidden;rotatable=0;points=[[0,0.5],[1,0.5]];portConstraint=eastwest;" parent="w-WPIUZYo52V58Tek4Fx-31" vertex="1">
          <mxGeometry y="294" width="310" height="26" as="geometry" />
        </mxCell>
        <mxCell id="w-WPIUZYo52V58Tek4Fx-42" value="+ sueldoBruto(): double" style="text;align=left;verticalAlign=top;spacingLeft=4;spacingRight=4;overflow=hidden;rotatable=0;points=[[0,0.5],[1,0.5]];portConstraint=eastwest;" parent="w-WPIUZYo52V58Tek4Fx-31" vertex="1">
          <mxGeometry y="320" width="310" height="26" as="geometry" />
        </mxCell>
        <mxCell id="w-WPIUZYo52V58Tek4Fx-41" value="+ retencionPorObraSocial(): double" style="text;align=left;verticalAlign=top;spacingLeft=4;spacingRight=4;overflow=hidden;rotatable=0;points=[[0,0.5],[1,0.5]];portConstraint=eastwest;" parent="w-WPIUZYo52V58Tek4Fx-31" vertex="1">
          <mxGeometry y="346" width="310" height="26" as="geometry" />
        </mxCell>
        <mxCell id="w-WPIUZYo52V58Tek4Fx-39" value="+ retencionPorAportesJubilatorios(): double" style="text;align=left;verticalAlign=top;spacingLeft=4;spacingRight=4;overflow=hidden;rotatable=0;points=[[0,0.5],[1,0.5]];portConstraint=eastwest;" parent="w-WPIUZYo52V58Tek4Fx-31" vertex="1">
          <mxGeometry y="372" width="310" height="26" as="geometry" />
        </mxCell>
        <mxCell id="w-WPIUZYo52V58Tek4Fx-40" value="+ retenciones(): double" style="text;align=left;verticalAlign=top;spacingLeft=4;spacingRight=4;overflow=hidden;rotatable=0;points=[[0,0.5],[1,0.5]];portConstraint=eastwest;" parent="w-WPIUZYo52V58Tek4Fx-31" vertex="1">
          <mxGeometry y="398" width="310" height="26" as="geometry" />
        </mxCell>
        <mxCell id="w-WPIUZYo52V58Tek4Fx-36" value="+ desgloseDeConceptos(): List&lt;String&gt;" style="text;align=left;verticalAlign=top;spacingLeft=4;spacingRight=4;overflow=hidden;rotatable=0;points=[[0,0.5],[1,0.5]];portConstraint=eastwest;" parent="w-WPIUZYo52V58Tek4Fx-31" vertex="1">
          <mxGeometry y="424" width="310" height="28" as="geometry" />
        </mxCell>
        <mxCell id="w-WPIUZYo52V58Tek4Fx-49" value="&lt;&lt;abstract&gt;&gt;&#xa;Empleado" style="swimlane;fontStyle=2;align=center;verticalAlign=top;childLayout=stackLayout;horizontal=1;startSize=41;horizontalStack=0;resizeParent=1;resizeLast=0;collapsible=1;marginBottom=0;rounded=0;shadow=0;strokeWidth=1;" parent="WIyWlLk6GJQsqaUBKTNV-1" vertex="1">
          <mxGeometry x="347" y="-304" width="348" height="822" as="geometry">
            <mxRectangle x="550" y="140" width="160" height="26" as="alternateBounds" />
          </mxGeometry>
        </mxCell>
        <mxCell id="w-WPIUZYo52V58Tek4Fx-50" value="- nombre: String" style="text;align=left;verticalAlign=top;spacingLeft=4;spacingRight=4;overflow=hidden;rotatable=0;points=[[0,0.5],[1,0.5]];portConstraint=eastwest;" parent="w-WPIUZYo52V58Tek4Fx-49" vertex="1">
          <mxGeometry y="41" width="348" height="26" as="geometry" />
        </mxCell>
        <mxCell id="w-WPIUZYo52V58Tek4Fx-51" value="- direccion: String" style="text;align=left;verticalAlign=top;spacingLeft=4;spacingRight=4;overflow=hidden;rotatable=0;points=[[0,0.5],[1,0.5]];portConstraint=eastwest;rounded=0;shadow=0;html=0;" parent="w-WPIUZYo52V58Tek4Fx-49" vertex="1">
          <mxGeometry y="67" width="348" height="26" as="geometry" />
        </mxCell>
        <mxCell id="w-WPIUZYo52V58Tek4Fx-54" value="- estadoCivil: String" style="text;align=left;verticalAlign=top;spacingLeft=4;spacingRight=4;overflow=hidden;rotatable=0;points=[[0,0.5],[1,0.5]];portConstraint=eastwest;rounded=0;shadow=0;html=0;" parent="w-WPIUZYo52V58Tek4Fx-49" vertex="1">
          <mxGeometry y="93" width="348" height="26" as="geometry" />
        </mxCell>
        <mxCell id="w-WPIUZYo52V58Tek4Fx-52" value="- fechaDeNacimiento: LocalDate" style="text;align=left;verticalAlign=top;spacingLeft=4;spacingRight=4;overflow=hidden;rotatable=0;points=[[0,0.5],[1,0.5]];portConstraint=eastwest;rounded=0;shadow=0;html=0;" parent="w-WPIUZYo52V58Tek4Fx-49" vertex="1">
          <mxGeometry y="119" width="348" height="26" as="geometry" />
        </mxCell>
        <mxCell id="w-WPIUZYo52V58Tek4Fx-53" value="- sueldoBasico: double" style="text;align=left;verticalAlign=top;spacingLeft=4;spacingRight=4;overflow=hidden;rotatable=0;points=[[0,0.5],[1,0.5]];portConstraint=eastwest;rounded=0;shadow=0;html=0;" parent="w-WPIUZYo52V58Tek4Fx-49" vertex="1">
          <mxGeometry y="145" width="348" height="26" as="geometry" />
        </mxCell>
        <mxCell id="w-WPIUZYo52V58Tek4Fx-55" value="" style="line;html=1;strokeWidth=1;align=left;verticalAlign=middle;spacingTop=-1;spacingLeft=3;spacingRight=3;rotatable=0;labelPosition=right;points=[];portConstraint=eastwest;" parent="w-WPIUZYo52V58Tek4Fx-49" vertex="1">
          <mxGeometry y="171" width="348" height="8" as="geometry" />
        </mxCell>
        <mxCell id="w-WPIUZYo52V58Tek4Fx-123" value="+ new(String, String, String, LocalDate, double)" style="text;align=left;verticalAlign=top;spacingLeft=4;spacingRight=4;overflow=hidden;rotatable=0;points=[[0,0.5],[1,0.5]];portConstraint=eastwest;fontStyle=4" parent="w-WPIUZYo52V58Tek4Fx-49" vertex="1">
          <mxGeometry y="179" width="348" height="29" as="geometry" />
        </mxCell>
        <mxCell id="w-WPIUZYo52V58Tek4Fx-56" value="+ getNombre(): String" style="text;align=left;verticalAlign=top;spacingLeft=4;spacingRight=4;overflow=hidden;rotatable=0;points=[[0,0.5],[1,0.5]];portConstraint=eastwest;" parent="w-WPIUZYo52V58Tek4Fx-49" vertex="1">
          <mxGeometry y="208" width="348" height="28" as="geometry" />
        </mxCell>
        <mxCell id="w-WPIUZYo52V58Tek4Fx-57" value="+ getDireccion(): String" style="text;align=left;verticalAlign=top;spacingLeft=4;spacingRight=4;overflow=hidden;rotatable=0;points=[[0,0.5],[1,0.5]];portConstraint=eastwest;" parent="w-WPIUZYo52V58Tek4Fx-49" vertex="1">
          <mxGeometry y="236" width="348" height="28" as="geometry" />
        </mxCell>
        <mxCell id="w-WPIUZYo52V58Tek4Fx-58" value="+ getFechaNacimiento(): LocalDate" style="text;align=left;verticalAlign=top;spacingLeft=4;spacingRight=4;overflow=hidden;rotatable=0;points=[[0,0.5],[1,0.5]];portConstraint=eastwest;" parent="w-WPIUZYo52V58Tek4Fx-49" vertex="1">
          <mxGeometry y="264" width="348" height="28" as="geometry" />
        </mxCell>
        <mxCell id="w-WPIUZYo52V58Tek4Fx-59" value="+ getSueldoBasico(): double" style="text;align=left;verticalAlign=top;spacingLeft=4;spacingRight=4;overflow=hidden;rotatable=0;points=[[0,0.5],[1,0.5]];portConstraint=eastwest;" parent="w-WPIUZYo52V58Tek4Fx-49" vertex="1">
          <mxGeometry y="292" width="348" height="28" as="geometry" />
        </mxCell>
        <mxCell id="w-WPIUZYo52V58Tek4Fx-60" value="+ getEstadoCivil(): String" style="text;align=left;verticalAlign=top;spacingLeft=4;spacingRight=4;overflow=hidden;rotatable=0;points=[[0,0.5],[1,0.5]];portConstraint=eastwest;" parent="w-WPIUZYo52V58Tek4Fx-49" vertex="1">
          <mxGeometry y="320" width="348" height="28" as="geometry" />
        </mxCell>
        <mxCell id="w-WPIUZYo52V58Tek4Fx-61" value="+ getRecibos(): List&lt;ReciboDeHaberes&gt;" style="text;align=left;verticalAlign=top;spacingLeft=4;spacingRight=4;overflow=hidden;rotatable=0;points=[[0,0.5],[1,0.5]];portConstraint=eastwest;" parent="w-WPIUZYo52V58Tek4Fx-49" vertex="1">
          <mxGeometry y="348" width="348" height="28" as="geometry" />
        </mxCell>
        <mxCell id="w-WPIUZYo52V58Tek4Fx-124" value="+ setNombre(String): void" style="text;align=left;verticalAlign=top;spacingLeft=4;spacingRight=4;overflow=hidden;rotatable=0;points=[[0,0.5],[1,0.5]];portConstraint=eastwest;" parent="w-WPIUZYo52V58Tek4Fx-49" vertex="1">
          <mxGeometry y="376" width="348" height="28" as="geometry" />
        </mxCell>
        <mxCell id="w-WPIUZYo52V58Tek4Fx-126" value="+ setEstadoCivil(String): void" style="text;align=left;verticalAlign=top;spacingLeft=4;spacingRight=4;overflow=hidden;rotatable=0;points=[[0,0.5],[1,0.5]];portConstraint=eastwest;" parent="w-WPIUZYo52V58Tek4Fx-49" vertex="1">
          <mxGeometry y="404" width="348" height="28" as="geometry" />
        </mxCell>
        <mxCell id="w-WPIUZYo52V58Tek4Fx-125" value="+ setDireccion(String): void" style="text;align=left;verticalAlign=top;spacingLeft=4;spacingRight=4;overflow=hidden;rotatable=0;points=[[0,0.5],[1,0.5]];portConstraint=eastwest;" parent="w-WPIUZYo52V58Tek4Fx-49" vertex="1">
          <mxGeometry y="432" width="348" height="28" as="geometry" />
        </mxCell>
        <mxCell id="w-WPIUZYo52V58Tek4Fx-128" value="+ setFechaDeNacimiento(LocalDate): void" style="text;align=left;verticalAlign=top;spacingLeft=4;spacingRight=4;overflow=hidden;rotatable=0;points=[[0,0.5],[1,0.5]];portConstraint=eastwest;" parent="w-WPIUZYo52V58Tek4Fx-49" vertex="1">
          <mxGeometry y="460" width="348" height="28" as="geometry" />
        </mxCell>
        <mxCell id="w-WPIUZYo52V58Tek4Fx-129" value="+ setSueldoBasico(double): void" style="text;align=left;verticalAlign=top;spacingLeft=4;spacingRight=4;overflow=hidden;rotatable=0;points=[[0,0.5],[1,0.5]];portConstraint=eastwest;" parent="w-WPIUZYo52V58Tek4Fx-49" vertex="1">
          <mxGeometry y="488" width="348" height="28" as="geometry" />
        </mxCell>
        <mxCell id="w-WPIUZYo52V58Tek4Fx-64" value="+ edad(): int" style="text;align=left;verticalAlign=top;spacingLeft=4;spacingRight=4;overflow=hidden;rotatable=0;points=[[0,0.5],[1,0.5]];portConstraint=eastwest;" parent="w-WPIUZYo52V58Tek4Fx-49" vertex="1">
          <mxGeometry y="516" width="348" height="26" as="geometry" />
        </mxCell>
        <mxCell id="w-WPIUZYo52V58Tek4Fx-63" value="+ diezPorCientoSueldoBruto(): double" style="text;align=left;verticalAlign=top;spacingLeft=4;spacingRight=4;overflow=hidden;rotatable=0;points=[[0,0.5],[1,0.5]];portConstraint=eastwest;" parent="w-WPIUZYo52V58Tek4Fx-49" vertex="1">
          <mxGeometry y="542" width="348" height="28" as="geometry" />
        </mxCell>
        <mxCell id="w-WPIUZYo52V58Tek4Fx-67" value="+ generarRecibo() : ReciboDeHaberes&#xa;" style="text;align=left;verticalAlign=top;spacingLeft=4;spacingRight=4;overflow=hidden;rotatable=0;points=[[0,0.5],[1,0.5]];portConstraint=eastwest;" parent="w-WPIUZYo52V58Tek4Fx-49" vertex="1">
          <mxGeometry y="570" width="348" height="26" as="geometry" />
        </mxCell>
        <mxCell id="w-WPIUZYo52V58Tek4Fx-66" value="+ generarYGuardarRecibo() : void&#xa;" style="text;align=left;verticalAlign=top;spacingLeft=4;spacingRight=4;overflow=hidden;rotatable=0;points=[[0,0.5],[1,0.5]];portConstraint=eastwest;" parent="w-WPIUZYo52V58Tek4Fx-49" vertex="1">
          <mxGeometry y="596" width="348" height="26" as="geometry" />
        </mxCell>
        <mxCell id="w-WPIUZYo52V58Tek4Fx-65" value="+ sueldoNeto(): double" style="text;align=left;verticalAlign=top;spacingLeft=4;spacingRight=4;overflow=hidden;rotatable=0;points=[[0,0.5],[1,0.5]];portConstraint=eastwest;" parent="w-WPIUZYo52V58Tek4Fx-49" vertex="1">
          <mxGeometry y="622" width="348" height="26" as="geometry" />
        </mxCell>
        <mxCell id="w-WPIUZYo52V58Tek4Fx-68" value="+ guardarRecibo(ReciboDeHaberes) : void&#xa;" style="text;align=left;verticalAlign=top;spacingLeft=4;spacingRight=4;overflow=hidden;rotatable=0;points=[[0,0.5],[1,0.5]];portConstraint=eastwest;" parent="w-WPIUZYo52V58Tek4Fx-49" vertex="1">
          <mxGeometry y="648" width="348" height="26" as="geometry" />
        </mxCell>
        <mxCell id="w-WPIUZYo52V58Tek4Fx-71" value="+ retencionPorObraSocial(): double &lt;&lt;abstract&gt;&gt;" style="text;align=left;verticalAlign=top;spacingLeft=4;spacingRight=4;overflow=hidden;rotatable=0;points=[[0,0.5],[1,0.5]];portConstraint=eastwest;fontStyle=2" parent="w-WPIUZYo52V58Tek4Fx-49" vertex="1">
          <mxGeometry y="674" width="348" height="28" as="geometry" />
        </mxCell>
        <mxCell id="w-WPIUZYo52V58Tek4Fx-70" value="+ retencionPorAportesJubilatorios(): double &lt;&lt;abstract&gt;&gt;" style="text;align=left;verticalAlign=top;spacingLeft=4;spacingRight=4;overflow=hidden;rotatable=0;points=[[0,0.5],[1,0.5]];portConstraint=eastwest;fontStyle=2" parent="w-WPIUZYo52V58Tek4Fx-49" vertex="1">
          <mxGeometry y="702" width="348" height="28" as="geometry" />
        </mxCell>
        <mxCell id="w-WPIUZYo52V58Tek4Fx-69" value="+ desgloseDeConceptos(): List&lt;String&gt; &lt;&lt;abstract&gt;&gt;&#xa;" style="text;align=left;verticalAlign=top;spacingLeft=4;spacingRight=4;overflow=hidden;rotatable=0;points=[[0,0.5],[1,0.5]];portConstraint=eastwest;fontStyle=2" parent="w-WPIUZYo52V58Tek4Fx-49" vertex="1">
          <mxGeometry y="730" width="348" height="28" as="geometry" />
        </mxCell>
        <mxCell id="w-WPIUZYo52V58Tek4Fx-72" value="+ retenciones(): double &lt;&lt;abstract&gt;&gt;" style="text;align=left;verticalAlign=top;spacingLeft=4;spacingRight=4;overflow=hidden;rotatable=0;points=[[0,0.5],[1,0.5]];portConstraint=eastwest;fontStyle=2" parent="w-WPIUZYo52V58Tek4Fx-49" vertex="1">
          <mxGeometry y="758" width="348" height="28" as="geometry" />
        </mxCell>
        <mxCell id="w-WPIUZYo52V58Tek4Fx-73" value="+ sueldoBruto(): double &lt;&lt;abstract&gt;&gt;" style="text;align=left;verticalAlign=top;spacingLeft=4;spacingRight=4;overflow=hidden;rotatable=0;points=[[0,0.5],[1,0.5]];portConstraint=eastwest;fontStyle=2" parent="w-WPIUZYo52V58Tek4Fx-49" vertex="1">
          <mxGeometry y="786" width="348" height="28" as="geometry" />
        </mxCell>
        <mxCell id="w-WPIUZYo52V58Tek4Fx-75" value="&lt;font style=&quot;font-size: 20px;&quot;&gt;empleados&lt;/font&gt;" style="text;html=1;align=center;verticalAlign=middle;resizable=0;points=[];autosize=1;strokeColor=none;fillColor=none;fontSize=15;" parent="WIyWlLk6GJQsqaUBKTNV-1" vertex="1">
          <mxGeometry x="151" y="-62" width="116" height="36" as="geometry" />
        </mxCell>
        <mxCell id="w-WPIUZYo52V58Tek4Fx-77" value="&lt;font style=&quot;font-size: 25px;&quot;&gt;1&lt;/font&gt;" style="text;html=1;align=center;verticalAlign=middle;resizable=0;points=[];autosize=1;strokeColor=none;fillColor=none;fontSize=20;" parent="WIyWlLk6GJQsqaUBKTNV-1" vertex="1">
          <mxGeometry x="93" y="-68" width="32" height="42" as="geometry" />
        </mxCell>
        <mxCell id="w-WPIUZYo52V58Tek4Fx-78" value="ReciboDeHaberes" style="swimlane;fontStyle=0;align=center;verticalAlign=top;childLayout=stackLayout;horizontal=1;startSize=26;horizontalStack=0;resizeParent=1;resizeLast=0;collapsible=1;marginBottom=0;rounded=0;shadow=0;strokeWidth=1;" parent="WIyWlLk6GJQsqaUBKTNV-1" vertex="1">
          <mxGeometry x="982" y="-286" width="350" height="621" as="geometry">
            <mxRectangle x="130" y="380" width="160" height="26" as="alternateBounds" />
          </mxGeometry>
        </mxCell>
        <mxCell id="w-WPIUZYo52V58Tek4Fx-80" value="- nombreEmpleado: String" style="text;align=left;verticalAlign=top;spacingLeft=4;spacingRight=4;overflow=hidden;rotatable=0;points=[[0,0.5],[1,0.5]];portConstraint=eastwest;" parent="w-WPIUZYo52V58Tek4Fx-78" vertex="1">
          <mxGeometry y="26" width="350" height="26" as="geometry" />
        </mxCell>
        <mxCell id="w-WPIUZYo52V58Tek4Fx-81" value="- direccionEmpleado: String" style="text;align=left;verticalAlign=top;spacingLeft=4;spacingRight=4;overflow=hidden;rotatable=0;points=[[0,0.5],[1,0.5]];portConstraint=eastwest;rounded=0;shadow=0;html=0;" parent="w-WPIUZYo52V58Tek4Fx-78" vertex="1">
          <mxGeometry y="52" width="350" height="26" as="geometry" />
        </mxCell>
        <mxCell id="w-WPIUZYo52V58Tek4Fx-82" value="- fechaEmision: LocalDate" style="text;align=left;verticalAlign=top;spacingLeft=4;spacingRight=4;overflow=hidden;rotatable=0;points=[[0,0.5],[1,0.5]];portConstraint=eastwest;rounded=0;shadow=0;html=0;" parent="w-WPIUZYo52V58Tek4Fx-78" vertex="1">
          <mxGeometry y="78" width="350" height="26" as="geometry" />
        </mxCell>
        <mxCell id="w-WPIUZYo52V58Tek4Fx-83" value="- sueldoBruto: double" style="text;align=left;verticalAlign=top;spacingLeft=4;spacingRight=4;overflow=hidden;rotatable=0;points=[[0,0.5],[1,0.5]];portConstraint=eastwest;rounded=0;shadow=0;html=0;" parent="w-WPIUZYo52V58Tek4Fx-78" vertex="1">
          <mxGeometry y="104" width="350" height="26" as="geometry" />
        </mxCell>
        <mxCell id="w-WPIUZYo52V58Tek4Fx-84" value="- sueldoNeto: double" style="text;align=left;verticalAlign=top;spacingLeft=4;spacingRight=4;overflow=hidden;rotatable=0;points=[[0,0.5],[1,0.5]];portConstraint=eastwest;rounded=0;shadow=0;html=0;" parent="w-WPIUZYo52V58Tek4Fx-78" vertex="1">
          <mxGeometry y="130" width="350" height="26" as="geometry" />
        </mxCell>
        <mxCell id="w-WPIUZYo52V58Tek4Fx-85" value="- conceptos: List&lt;String&gt;" style="text;align=left;verticalAlign=top;spacingLeft=4;spacingRight=4;overflow=hidden;rotatable=0;points=[[0,0.5],[1,0.5]];portConstraint=eastwest;rounded=0;shadow=0;html=0;" parent="w-WPIUZYo52V58Tek4Fx-78" vertex="1">
          <mxGeometry y="156" width="350" height="26" as="geometry" />
        </mxCell>
        <mxCell id="w-WPIUZYo52V58Tek4Fx-86" value="" style="line;html=1;strokeWidth=1;align=left;verticalAlign=middle;spacingTop=-1;spacingLeft=3;spacingRight=3;rotatable=0;labelPosition=right;points=[];portConstraint=eastwest;" parent="w-WPIUZYo52V58Tek4Fx-78" vertex="1">
          <mxGeometry y="182" width="350" height="8" as="geometry" />
        </mxCell>
        <mxCell id="w-WPIUZYo52V58Tek4Fx-88" value="+ getConceptos() : List&lt;String&gt;" style="text;align=left;verticalAlign=top;spacingLeft=4;spacingRight=4;overflow=hidden;rotatable=0;points=[[0,0.5],[1,0.5]];portConstraint=eastwest;" parent="w-WPIUZYo52V58Tek4Fx-78" vertex="1">
          <mxGeometry y="190" width="350" height="30" as="geometry" />
        </mxCell>
        <mxCell id="w-WPIUZYo52V58Tek4Fx-89" value="+ getDireccionEmpleado() : String" style="text;align=left;verticalAlign=top;spacingLeft=4;spacingRight=4;overflow=hidden;rotatable=0;points=[[0,0.5],[1,0.5]];portConstraint=eastwest;" parent="w-WPIUZYo52V58Tek4Fx-78" vertex="1">
          <mxGeometry y="220" width="350" height="30" as="geometry" />
        </mxCell>
        <mxCell id="w-WPIUZYo52V58Tek4Fx-90" value="+ getFechaEmision() : LocalDate" style="text;align=left;verticalAlign=top;spacingLeft=4;spacingRight=4;overflow=hidden;rotatable=0;points=[[0,0.5],[1,0.5]];portConstraint=eastwest;" parent="w-WPIUZYo52V58Tek4Fx-78" vertex="1">
          <mxGeometry y="250" width="350" height="34" as="geometry" />
        </mxCell>
        <mxCell id="w-WPIUZYo52V58Tek4Fx-91" value="+ getNombreEmpleado() : String" style="text;align=left;verticalAlign=top;spacingLeft=4;spacingRight=4;overflow=hidden;rotatable=0;points=[[0,0.5],[1,0.5]];portConstraint=eastwest;" parent="w-WPIUZYo52V58Tek4Fx-78" vertex="1">
          <mxGeometry y="284" width="350" height="34" as="geometry" />
        </mxCell>
        <mxCell id="w-WPIUZYo52V58Tek4Fx-92" value="+ getSueldoNeto() : double&#xa;" style="text;align=left;verticalAlign=top;spacingLeft=4;spacingRight=4;overflow=hidden;rotatable=0;points=[[0,0.5],[1,0.5]];portConstraint=eastwest;" parent="w-WPIUZYo52V58Tek4Fx-78" vertex="1">
          <mxGeometry y="318" width="350" height="34" as="geometry" />
        </mxCell>
        <mxCell id="w-WPIUZYo52V58Tek4Fx-93" value="+ getSueldoBruto() : double" style="text;align=left;verticalAlign=top;spacingLeft=4;spacingRight=4;overflow=hidden;rotatable=0;points=[[0,0.5],[1,0.5]];portConstraint=eastwest;" parent="w-WPIUZYo52V58Tek4Fx-78" vertex="1">
          <mxGeometry y="352" width="350" height="34" as="geometry" />
        </mxCell>
        <mxCell id="w-WPIUZYo52V58Tek4Fx-94" value="+ setDireccionEmpleado(String) : void&#xa;" style="text;align=left;verticalAlign=top;spacingLeft=4;spacingRight=4;overflow=hidden;rotatable=0;points=[[0,0.5],[1,0.5]];portConstraint=eastwest;" parent="w-WPIUZYo52V58Tek4Fx-78" vertex="1">
          <mxGeometry y="386" width="350" height="34" as="geometry" />
        </mxCell>
        <mxCell id="w-WPIUZYo52V58Tek4Fx-95" value="+ setFechaEmision(LocalDate) : void&#xa;" style="text;align=left;verticalAlign=top;spacingLeft=4;spacingRight=4;overflow=hidden;rotatable=0;points=[[0,0.5],[1,0.5]];portConstraint=eastwest;" parent="w-WPIUZYo52V58Tek4Fx-78" vertex="1">
          <mxGeometry y="420" width="350" height="34" as="geometry" />
        </mxCell>
        <mxCell id="w-WPIUZYo52V58Tek4Fx-96" value="+ setNombreEmpleado(String) : void&#xa;" style="text;align=left;verticalAlign=top;spacingLeft=4;spacingRight=4;overflow=hidden;rotatable=0;points=[[0,0.5],[1,0.5]];portConstraint=eastwest;" parent="w-WPIUZYo52V58Tek4Fx-78" vertex="1">
          <mxGeometry y="454" width="350" height="34" as="geometry" />
        </mxCell>
        <mxCell id="w-WPIUZYo52V58Tek4Fx-97" value="+ setSueldoBruto(double) : void&#xa;" style="text;align=left;verticalAlign=top;spacingLeft=4;spacingRight=4;overflow=hidden;rotatable=0;points=[[0,0.5],[1,0.5]];portConstraint=eastwest;" parent="w-WPIUZYo52V58Tek4Fx-78" vertex="1">
          <mxGeometry y="488" width="350" height="34" as="geometry" />
        </mxCell>
        <mxCell id="w-WPIUZYo52V58Tek4Fx-98" value="+ setSueldoNeto(double) : void&#xa;" style="text;align=left;verticalAlign=top;spacingLeft=4;spacingRight=4;overflow=hidden;rotatable=0;points=[[0,0.5],[1,0.5]];portConstraint=eastwest;" parent="w-WPIUZYo52V58Tek4Fx-78" vertex="1">
          <mxGeometry y="522" width="350" height="34" as="geometry" />
        </mxCell>
        <mxCell id="w-WPIUZYo52V58Tek4Fx-99" value="+ setConceptos(List&lt;String&gt;) : void&#xa;" style="text;align=left;verticalAlign=top;spacingLeft=4;spacingRight=4;overflow=hidden;rotatable=0;points=[[0,0.5],[1,0.5]];portConstraint=eastwest;" parent="w-WPIUZYo52V58Tek4Fx-78" vertex="1">
          <mxGeometry y="556" width="350" height="34" as="geometry" />
        </mxCell>
        <mxCell id="w-WPIUZYo52V58Tek4Fx-122" value=" + imprimirRecibo(): void" style="text;align=left;verticalAlign=top;spacingLeft=4;spacingRight=4;overflow=hidden;rotatable=0;points=[[0,0.5],[1,0.5]];portConstraint=eastwest;" parent="w-WPIUZYo52V58Tek4Fx-78" vertex="1">
          <mxGeometry y="590" width="350" height="26" as="geometry" />
        </mxCell>
        <mxCell id="w-WPIUZYo52V58Tek4Fx-100" value="&lt;font style=&quot;font-size: 25px;&quot;&gt;1&lt;/font&gt;" style="text;html=1;align=center;verticalAlign=middle;resizable=0;points=[];autosize=1;strokeColor=none;fillColor=none;fontSize=20;" parent="WIyWlLk6GJQsqaUBKTNV-1" vertex="1">
          <mxGeometry x="697" y="-68" width="32" height="42" as="geometry" />
        </mxCell>
        <mxCell id="w-WPIUZYo52V58Tek4Fx-101" value="&lt;font style=&quot;font-size: 25px;&quot;&gt;*&lt;/font&gt;" style="text;html=1;align=center;verticalAlign=middle;resizable=0;points=[];autosize=1;strokeColor=none;fillColor=none;fontSize=20;" parent="WIyWlLk6GJQsqaUBKTNV-1" vertex="1">
          <mxGeometry x="934" y="-60" width="28" height="42" as="geometry" />
        </mxCell>
        <mxCell id="w-WPIUZYo52V58Tek4Fx-102" value="&lt;font style=&quot;font-size: 20px;&quot;&gt;recibos&lt;/font&gt;" style="text;html=1;align=center;verticalAlign=middle;resizable=0;points=[];autosize=1;strokeColor=none;fillColor=none;rotation=0;fontSize=15;" parent="WIyWlLk6GJQsqaUBKTNV-1" vertex="1">
          <mxGeometry x="792" y="-68" width="82" height="36" as="geometry" />
        </mxCell>
        <mxCell id="w-WPIUZYo52V58Tek4Fx-103" value="EmpleadoContratado" style="swimlane;fontStyle=0;align=center;verticalAlign=top;childLayout=stackLayout;horizontal=1;startSize=26;horizontalStack=0;resizeParent=1;resizeLast=0;collapsible=1;marginBottom=0;rounded=0;shadow=0;strokeWidth=1;" parent="WIyWlLk6GJQsqaUBKTNV-1" vertex="1">
          <mxGeometry x="17" y="616" width="330" height="348" as="geometry">
            <mxRectangle x="130" y="380" width="160" height="26" as="alternateBounds" />
          </mxGeometry>
        </mxCell>
        <mxCell id="w-WPIUZYo52V58Tek4Fx-104" value="- numeroDeContrato: int&#xa;" style="text;align=left;verticalAlign=top;spacingLeft=4;spacingRight=4;overflow=hidden;rotatable=0;points=[[0,0.5],[1,0.5]];portConstraint=eastwest;rounded=0;shadow=0;html=0;" parent="w-WPIUZYo52V58Tek4Fx-103" vertex="1">
          <mxGeometry y="26" width="330" height="26" as="geometry" />
        </mxCell>
        <mxCell id="w-WPIUZYo52V58Tek4Fx-105" value="- medioDePago: String" style="text;align=left;verticalAlign=top;spacingLeft=4;spacingRight=4;overflow=hidden;rotatable=0;points=[[0,0.5],[1,0.5]];portConstraint=eastwest;rounded=0;shadow=0;html=0;" parent="w-WPIUZYo52V58Tek4Fx-103" vertex="1">
          <mxGeometry y="52" width="330" height="26" as="geometry" />
        </mxCell>
        <mxCell id="w-WPIUZYo52V58Tek4Fx-106" value="" style="line;html=1;strokeWidth=1;align=left;verticalAlign=middle;spacingTop=-1;spacingLeft=3;spacingRight=3;rotatable=0;labelPosition=right;points=[];portConstraint=eastwest;" parent="w-WPIUZYo52V58Tek4Fx-103" vertex="1">
          <mxGeometry y="78" width="330" height="8" as="geometry" />
        </mxCell>
        <mxCell id="w-WPIUZYo52V58Tek4Fx-107" value="+ new(Int, String)" style="text;align=left;verticalAlign=top;spacingLeft=4;spacingRight=4;overflow=hidden;rotatable=0;points=[[0,0.5],[1,0.5]];portConstraint=eastwest;fontStyle=4" parent="w-WPIUZYo52V58Tek4Fx-103" vertex="1">
          <mxGeometry y="86" width="330" height="24" as="geometry" />
        </mxCell>
        <mxCell id="w-WPIUZYo52V58Tek4Fx-109" value="+ getNumeroContrato(): int" style="text;align=left;verticalAlign=top;spacingLeft=4;spacingRight=4;overflow=hidden;rotatable=0;points=[[0,0.5],[1,0.5]];portConstraint=eastwest;fontStyle=0" parent="w-WPIUZYo52V58Tek4Fx-103" vertex="1">
          <mxGeometry y="110" width="330" height="26" as="geometry" />
        </mxCell>
        <mxCell id="w-WPIUZYo52V58Tek4Fx-110" value="+ getMedioDePago(): String" style="text;align=left;verticalAlign=top;spacingLeft=4;spacingRight=4;overflow=hidden;rotatable=0;points=[[0,0.5],[1,0.5]];portConstraint=eastwest;fontStyle=0" parent="w-WPIUZYo52V58Tek4Fx-103" vertex="1">
          <mxGeometry y="136" width="330" height="26" as="geometry" />
        </mxCell>
        <mxCell id="w-WPIUZYo52V58Tek4Fx-130" value="+ setNumeroDeContrato(int): void" style="text;align=left;verticalAlign=top;spacingLeft=4;spacingRight=4;overflow=hidden;rotatable=0;points=[[0,0.5],[1,0.5]];portConstraint=eastwest;fontStyle=0" parent="w-WPIUZYo52V58Tek4Fx-103" vertex="1">
          <mxGeometry y="162" width="330" height="26" as="geometry" />
        </mxCell>
        <mxCell id="w-WPIUZYo52V58Tek4Fx-131" value="+ setMedioDePago(String): void" style="text;align=left;verticalAlign=top;spacingLeft=4;spacingRight=4;overflow=hidden;rotatable=0;points=[[0,0.5],[1,0.5]];portConstraint=eastwest;fontStyle=0" parent="w-WPIUZYo52V58Tek4Fx-103" vertex="1">
          <mxGeometry y="188" width="330" height="26" as="geometry" />
        </mxCell>
        <mxCell id="w-WPIUZYo52V58Tek4Fx-108" value="+ desgloseDeConceptos() : List&lt;String&gt;" style="text;align=left;verticalAlign=top;spacingLeft=4;spacingRight=4;overflow=hidden;rotatable=0;points=[[0,0.5],[1,0.5]];portConstraint=eastwest;" parent="w-WPIUZYo52V58Tek4Fx-103" vertex="1">
          <mxGeometry y="214" width="330" height="28" as="geometry" />
        </mxCell>
        <mxCell id="w-WPIUZYo52V58Tek4Fx-111" value="+ retenciones(): double" style="text;align=left;verticalAlign=top;spacingLeft=4;spacingRight=4;overflow=hidden;rotatable=0;points=[[0,0.5],[1,0.5]];portConstraint=eastwest;fontStyle=0" parent="w-WPIUZYo52V58Tek4Fx-103" vertex="1">
          <mxGeometry y="242" width="330" height="26" as="geometry" />
        </mxCell>
        <mxCell id="w-WPIUZYo52V58Tek4Fx-112" value="+ sueldoBruto(): double" style="text;align=left;verticalAlign=top;spacingLeft=4;spacingRight=4;overflow=hidden;rotatable=0;points=[[0,0.5],[1,0.5]];portConstraint=eastwest;" parent="w-WPIUZYo52V58Tek4Fx-103" vertex="1">
          <mxGeometry y="268" width="330" height="28" as="geometry" />
        </mxCell>
        <mxCell id="w-WPIUZYo52V58Tek4Fx-134" value="+ retencionPorAportesJubilatorios(): double&#xa;" style="text;align=left;verticalAlign=top;spacingLeft=4;spacingRight=4;overflow=hidden;rotatable=0;points=[[0,0.5],[1,0.5]];portConstraint=eastwest;fontStyle=0" parent="w-WPIUZYo52V58Tek4Fx-103" vertex="1">
          <mxGeometry y="296" width="330" height="26" as="geometry" />
        </mxCell>
        <mxCell id="w-WPIUZYo52V58Tek4Fx-133" value="+ retencionPorObraSocial(): double" style="text;align=left;verticalAlign=top;spacingLeft=4;spacingRight=4;overflow=hidden;rotatable=0;points=[[0,0.5],[1,0.5]];portConstraint=eastwest;fontStyle=0" parent="w-WPIUZYo52V58Tek4Fx-103" vertex="1">
          <mxGeometry y="322" width="330" height="26" as="geometry" />
        </mxCell>
        <mxCell id="femqYec-666VqDK8ihpy-0" value="" style="html=1;verticalAlign=bottom;endArrow=block;curved=0;rounded=0;exitX=1;exitY=0.75;exitDx=0;exitDy=0;exitPerimeter=0;" parent="WIyWlLk6GJQsqaUBKTNV-1" source="w-WPIUZYo52V58Tek4Fx-7" edge="1">
          <mxGeometry width="80" relative="1" as="geometry">
            <mxPoint x="558" y="143" as="sourcePoint" />
            <mxPoint x="344" y="-23" as="targetPoint" />
          </mxGeometry>
        </mxCell>
        <mxCell id="femqYec-666VqDK8ihpy-1" value="" style="html=1;verticalAlign=bottom;endArrow=block;curved=0;rounded=0;exitX=1;exitY=0.75;exitDx=0;exitDy=0;exitPerimeter=0;entryX=0;entryY=0.5;entryDx=0;entryDy=0;" parent="WIyWlLk6GJQsqaUBKTNV-1" target="w-WPIUZYo52V58Tek4Fx-90" edge="1">
          <mxGeometry width="80" relative="1" as="geometry">
            <mxPoint x="695" y="-21" as="sourcePoint" />
            <mxPoint x="979" y="-21" as="targetPoint" />
          </mxGeometry>
        </mxCell>
        <mxCell id="femqYec-666VqDK8ihpy-2" value="&lt;font style=&quot;font-size: 25px;&quot;&gt;*&lt;/font&gt;" style="text;html=1;align=center;verticalAlign=middle;resizable=0;points=[];autosize=1;strokeColor=none;fillColor=none;fontSize=20;" parent="WIyWlLk6GJQsqaUBKTNV-1" vertex="1">
          <mxGeometry x="296" y="-60" width="28" height="42" as="geometry" />
        </mxCell>
        <mxCell id="Doaid3RFJy1cGR3zUOo6-248" value="" style="endArrow=block;endSize=16;endFill=0;html=1;rounded=0;exitX=0.75;exitY=0;exitDx=0;exitDy=0;entryX=0;entryY=1;entryDx=0;entryDy=0;" parent="WIyWlLk6GJQsqaUBKTNV-1" source="w-WPIUZYo52V58Tek4Fx-103" target="w-WPIUZYo52V58Tek4Fx-49" edge="1">
          <mxGeometry width="160" relative="1" as="geometry">
            <mxPoint x="401" y="732" as="sourcePoint" />
            <mxPoint x="364" y="520" as="targetPoint" />
          </mxGeometry>
        </mxCell>
        <mxCell id="Doaid3RFJy1cGR3zUOo6-249" value="" style="endArrow=block;endSize=16;endFill=0;html=1;rounded=0;exitX=0.5;exitY=0;exitDx=0;exitDy=0;" parent="WIyWlLk6GJQsqaUBKTNV-1" source="w-WPIUZYo52V58Tek4Fx-14" edge="1">
          <mxGeometry width="160" relative="1" as="geometry">
            <mxPoint x="287" y="638" as="sourcePoint" />
            <mxPoint x="550" y="517" as="targetPoint" />
          </mxGeometry>
        </mxCell>
        <mxCell id="Doaid3RFJy1cGR3zUOo6-250" value="" style="endArrow=block;endSize=16;endFill=0;html=1;rounded=0;exitX=0.25;exitY=0;exitDx=0;exitDy=0;entryX=1;entryY=1;entryDx=0;entryDy=0;" parent="WIyWlLk6GJQsqaUBKTNV-1" source="w-WPIUZYo52V58Tek4Fx-31" target="w-WPIUZYo52V58Tek4Fx-49" edge="1">
          <mxGeometry width="160" relative="1" as="geometry">
            <mxPoint x="659" y="633" as="sourcePoint" />
            <mxPoint x="630" y="521" as="targetPoint" />
          </mxGeometry>
        </mxCell>
      </root>
    </mxGraphModel>
  </diagram>
</mxfile>
